<svg width="813" height="203" viewBox="0 0 813 203" fill="none" xmlns="http://www.w3.org/2000/svg">
<g clip-path="url(#clip0_253_2)">
<path opacity="0.664" fill-rule="evenodd" clip-rule="evenodd" d="M126.5 30.5C129.187 30.3359 131.854 30.5026 134.5 31C135.056 31.3826 135.389 31.8826 135.5 32.5C131.481 32.6458 127.481 32.9791 123.5 33.5C123.611 32.8826 123.944 32.3826 124.5 32C99.8333 31.3333 75.1667 31.3333 50.5 32C48.26 32.9769 45.9267 33.4769 43.5 33.5C44.842 32.2069 46.5087 31.3736 48.5 31C74.4979 30.5 100.498 30.3333 126.5 30.5Z" fill="#E6C86C"/>
<path opacity="0.339" fill-rule="evenodd" clip-rule="evenodd" d="M126.5 30.5C126.5 30.1667 126.5 29.8333 126.5 29.5C135.167 29.5 143.833 29.5 152.5 29.5C152.5 30.5 152.5 31.5 152.5 32.5C146.833 32.5 141.167 32.5 135.5 32.5C135.389 31.8826 135.056 31.3826 134.5 31C131.854 30.5026 129.187 30.3359 126.5 30.5Z" fill="#F6ECCB"/>
<path fill-rule="evenodd" clip-rule="evenodd" d="M123.5 33.5C100.43 38.2828 80.5971 48.9494 64 65.5C61.9702 68.2263 60.4702 71.2263 59.5 74.5C61.2788 80.3666 64.9454 81.8666 70.5 79C72.7032 76.6278 75.0365 74.4611 77.5 72.5C81.3633 71.3064 84.3633 68.973 86.5 65.5C88.9754 62.7589 91.9754 60.7589 95.5 59.5C97.8477 59.4077 99.5144 58.4077 100.5 56.5C118.354 47.265 137.354 43.9317 157.5 46.5C159.838 48.0395 162.505 48.7062 165.5 48.5C167.861 48.6741 170.194 49.0074 172.5 49.5C172.829 55.5368 172.496 61.5368 171.5 67.5C155.071 61.6618 138.405 60.9952 121.5 65.5C119.517 65.1568 118.183 65.8235 117.5 67.5C116.833 67.5 116.167 67.5 115.5 67.5C113.62 67.2291 112.287 67.8958 111.5 69.5C93.145 77.855 79.8116 91.1884 71.5 109.5C69.9519 109.821 69.2852 110.821 69.5 112.5C69.5 112.833 69.5 113.167 69.5 113.5C67.8958 114.287 67.2291 115.62 67.5 117.5C63.5006 134.492 63.5006 151.492 67.5 168.5C67.5 169.5 67.5 170.5 67.5 171.5C59.409 171.761 51.409 171.094 43.5 169.5C38.4216 166.757 34.7549 162.757 32.5 157.5C31.173 119.837 31.173 82.1707 32.5 44.5C33.7859 41.883 35.4526 39.5496 37.5 37.5C39.027 37.573 40.0269 36.9063 40.5 35.5C40.9731 34.0937 41.9731 33.427 43.5 33.5C45.9267 33.477 48.26 32.977 50.5 32C75.1667 31.3333 99.8333 31.3333 124.5 32C123.944 32.3826 123.611 32.8826 123.5 33.5Z" fill="#E2BE4C"/>
<path opacity="0.616" fill-rule="evenodd" clip-rule="evenodd" d="M40.5 35.5C40.0269 36.9063 39.0269 37.573 37.5 37.5C37.9731 36.0937 38.9731 35.427 40.5 35.5Z" fill="#F2DCA2"/>
<path opacity="0.529" fill-rule="evenodd" clip-rule="evenodd" d="M157.5 46.5C160.428 46.5651 163.095 47.2318 165.5 48.5C162.505 48.7062 159.838 48.0395 157.5 46.5Z" fill="#F4E0A9"/>
<path opacity="0.851" fill-rule="evenodd" clip-rule="evenodd" d="M32.5 44.5C31.173 82.1707 31.173 119.837 32.5 157.5C31.1314 155.309 30.1314 152.975 29.5 150.5C29.5 117.5 29.5 84.5 29.5 51.5C30.3485 49.1124 31.3485 46.7791 32.5 44.5Z" fill="#EED68F"/>
<path opacity="0.663" fill-rule="evenodd" clip-rule="evenodd" d="M100.5 56.5C99.5144 58.4077 97.8477 59.4077 95.5 59.5C96.6594 57.7497 98.326 56.7497 100.5 56.5Z" fill="#EDD389"/>
<path opacity="0.498" fill-rule="evenodd" clip-rule="evenodd" d="M121.5 65.5001C120.329 66.3447 118.995 67.0114 117.5 67.5001C118.183 65.8236 119.517 65.1569 121.5 65.5001Z" fill="#F2DEA9"/>
<path opacity="0.894" fill-rule="evenodd" clip-rule="evenodd" d="M86.5 65.5C84.3633 68.973 81.3633 71.3064 77.5 72.5C80.2085 69.7915 83.2085 67.4581 86.5 65.5Z" fill="#EBCE7A"/>
<path opacity="0.01" fill-rule="evenodd" clip-rule="evenodd" d="M115.5 67.5001C114.486 68.6738 113.153 69.3405 111.5 69.5001C112.287 67.8959 113.62 67.2292 115.5 67.5001Z" fill="#F7EAC8"/>
<path opacity="0.4" fill-rule="evenodd" clip-rule="evenodd" d="M134.5 77.5001C137.649 76.835 140.982 76.5017 144.5 76.5001C149.755 76.3344 154.755 77.0011 159.5 78.5001C151.191 77.712 142.858 77.3787 134.5 77.5001Z" fill="#B0CDA2"/>
<path fill-rule="evenodd" clip-rule="evenodd" d="M134.5 77.4999C142.858 77.3785 151.191 77.7118 159.5 78.4999C161.515 79.9237 163.848 80.5904 166.5 80.4999C168.582 80.4719 170.416 81.1386 172 82.4999C172.667 106.5 172.667 130.5 172 154.5C168.584 163.417 162.417 169.417 153.5 172.5C142.833 172.5 132.167 172.5 121.5 172.5C105.818 157.452 103.318 140.452 114 121.5C120.529 112.484 129.362 107.484 140.5 106.5C143.518 106.664 146.518 106.498 149.5 106C150.056 105.617 150.389 105.117 150.5 104.5C155.03 97.6028 153.196 93.2695 145 91.4999C118.013 93.3227 101.179 107.323 94.5 133.5C93.7784 133.918 93.2784 134.584 93 135.5C92.8333 137.833 92.6667 140.167 92.5 142.5C92.3148 146.141 92.9814 149.474 94.5 152.5C96.5842 159.423 99.2509 166.09 102.5 172.5C96.5 172.5 90.5 172.5 84.5 172.5C70.9559 138.841 78.2892 110.674 106.5 87.9999C115.07 82.4216 124.403 78.9216 134.5 77.4999Z" fill="#75A75C"/>
<path opacity="0.518" fill-rule="evenodd" clip-rule="evenodd" d="M159.5 78.5001C162.152 78.4096 164.485 79.0763 166.5 80.5001C163.848 80.5906 161.515 79.9239 159.5 78.5001Z" fill="#ACC99B"/>
<path opacity="0.588" fill-rule="evenodd" clip-rule="evenodd" d="M150.5 104.5C150.389 105.117 150.056 105.617 149.5 106C146.518 106.498 143.518 106.665 140.5 106.5C143.684 105.677 147.017 105.01 150.5 104.5Z" fill="#ABCA9D"/>
<path opacity="0.31" fill-rule="evenodd" clip-rule="evenodd" d="M71.5 109.5C71.0679 110.709 70.4013 111.71 69.5 112.5C69.2852 110.821 69.9519 109.821 71.5 109.5Z" fill="#F3E0AD"/>
<path opacity="0.365" fill-rule="evenodd" clip-rule="evenodd" d="M69.5 113.5C69.3404 115.153 68.6737 116.486 67.5 117.5C67.2291 115.62 67.8958 114.287 69.5 113.5Z" fill="#F2DEA7"/>
<path opacity="0.502" fill-rule="evenodd" clip-rule="evenodd" d="M94.5 133.5C93.2322 139.828 93.2322 146.161 94.5 152.5C92.9814 149.474 92.3148 146.141 92.5 142.5C92.6667 140.167 92.8333 137.833 93 135.5C93.2784 134.584 93.7784 133.918 94.5 133.5Z" fill="#A9C89A"/>
<path opacity="0.42" fill-rule="evenodd" clip-rule="evenodd" d="M67.5 168.5C68.6737 169.514 69.3404 170.847 69.5 172.5C62.8333 172.5 56.1667 172.5 49.5 172.5C47.5 171.5 45.5 170.5 43.5 169.5C51.409 171.094 59.409 171.761 67.5 171.5C67.5 170.5 67.5 169.5 67.5 168.5Z" fill="#E9CD79"/>
</g>
<path d="M255.083 64.5081C243.083 67.0415 232.817 75.8415 228.817 86.7748C226.017 94.7748 226.55 111.975 229.75 119.175C236.017 133.041 247.35 139.175 266.017 139.175C277.483 139.041 285.35 137.041 289.75 133.041C292.017 131.041 292.283 128.908 292.283 115.708C292.283 96.2415 292.283 96.2415 275.217 96.7748C261.35 97.1748 259.083 98.3748 260.817 104.908C261.617 108.241 262.15 108.508 269.617 108.508H277.617V117.041C277.617 126.908 277.217 127.175 266.017 127.175C256.683 127.175 250.283 124.108 245.883 117.441C242.95 113.041 242.417 110.641 242.417 102.641C242.283 87.0415 247.883 79.4415 261.483 76.2415C267.35 74.9081 269.217 75.1748 277.217 77.7081C285.75 80.5081 286.283 80.5081 287.883 78.3748C290.017 75.4415 290.017 73.8415 287.75 70.9081C283.617 65.3081 266.817 62.1081 255.083 64.5081Z" fill="black"/>
<path d="M576.95 64.3748C565.884 67.4415 558.017 73.4415 553.217 82.3748C550.684 87.0415 550.284 89.9748 550.284 101.841C550.284 117.708 552.417 123.441 560.684 130.775C568.15 137.308 575.75 139.575 588.684 139.041C601.484 138.508 607.35 135.575 608.017 129.575C608.684 124.375 605.617 122.775 599.484 125.308C592.284 128.375 579.484 127.441 573.884 123.308C567.217 118.641 565.084 113.308 565.084 101.841C564.95 94.1082 565.617 90.7748 567.75 87.1748C573.35 77.4415 584.684 73.3082 595.084 77.1748C605.217 80.9082 605.35 80.9082 606.95 77.8415C609.217 73.5748 606.684 68.7748 600.95 66.3748C595.217 63.9748 582.284 62.9082 576.95 64.3748Z" fill="black"/>
<path d="M318.417 82.5079C308.283 86.1079 307.617 87.5746 307.217 108.775C306.683 132.241 307.217 136.241 312.017 137.975C313.883 138.775 316.95 139.041 318.55 138.508C321.617 137.841 321.617 137.575 321.617 116.508C321.617 91.9746 321.217 92.7746 335.483 91.4413C345.483 90.6413 348.417 87.4413 343.483 82.6413C340.817 79.9746 325.75 79.8413 318.417 82.5079Z" fill="black"/>
<path d="M366.283 82.3747C360.55 84.9081 354.017 92.7747 352.15 99.4414C348.15 114.375 354.017 129.841 365.883 135.708C374.15 139.841 387.883 140.508 395.883 137.175C401.483 134.775 402.95 133.175 402.95 128.775C402.95 124.775 400.417 123.975 394.55 126.508C388.417 129.041 380.283 129.041 374.283 126.641C369.083 124.375 364.283 118.108 366.683 116.641C367.483 116.108 375.883 114.641 385.217 113.441C394.55 112.108 402.95 110.375 403.883 109.575C406.017 107.841 406.15 100.775 404.15 95.5747C402.283 90.5081 396.55 84.5081 391.35 82.3747C385.883 79.9747 371.617 80.1081 366.283 82.3747ZM388.95 95.3081C390.817 97.5747 392.15 100.241 391.883 101.041C391.35 102.508 366.017 106.641 364.817 105.441C363.483 104.241 368.017 95.4414 371.083 93.3081C372.817 92.1081 376.683 91.1747 379.75 91.1747C384.417 91.1747 386.017 91.8414 388.95 95.3081Z" fill="black"/>
<path d="M429.617 83.4413C422.417 87.0413 418.283 92.9079 416.417 101.975C413.083 117.441 419.617 131.708 432.55 137.175C438.817 139.708 454.817 139.841 460.95 137.308C466.55 134.908 468.95 130.908 466.95 127.175C465.217 123.975 464.683 123.975 458.55 126.508C448.417 130.775 436.283 127.975 431.883 120.508C429.083 115.841 427.75 116.375 450.95 113.041C459.35 111.841 467.083 110.241 468.15 109.441C470.817 107.175 469.35 95.1746 465.75 89.9746C458.95 80.3746 441.75 77.3079 429.617 83.4413ZM453.083 94.5079C458.95 100.375 457.083 102.241 443.217 104.241C436.417 105.308 430.417 105.841 430.017 105.441C428.683 103.975 431.083 97.5746 434.283 94.3746C438.95 89.8413 448.417 89.8413 453.083 94.5079Z" fill="black"/>
<path d="M491.483 83.7081C487.75 85.4414 484.283 87.8414 483.883 89.1748C482.683 92.2414 482.817 134.108 484.017 135.975C485.483 138.241 490.283 139.441 494.15 138.375L497.617 137.575V115.975V94.2414L500.95 92.7748C507.217 89.8414 516.417 91.4414 519.217 95.7081C519.75 96.5081 520.283 105.441 520.283 115.441C520.283 132.108 520.55 134.108 522.95 136.508C525.75 139.308 527.217 139.575 532.017 138.375L535.083 137.441L534.683 114.375C534.283 91.9748 534.15 91.3081 530.95 87.7081C526.017 82.3748 520.283 80.5081 508.683 80.5081C500.55 80.5081 496.817 81.1748 491.483 83.7081Z" fill="black"/>
<path d="M626.95 82.9081C623.217 84.7748 622.284 85.9748 622.284 89.1748C622.284 92.7748 622.684 93.1748 626.284 92.7748C649.484 90.7748 647.884 90.6415 651.617 94.3748C657.617 100.375 655.884 102.241 642.284 103.841C627.75 105.708 622.15 108.375 619.484 114.775C615.217 124.908 621.75 136.508 632.95 138.641C641.484 140.241 658.15 138.508 663.084 135.708L667.617 133.041L668.017 113.441C668.417 90.5081 667.35 87.1748 658.55 83.0415C650.95 79.7081 633.617 79.5748 626.95 82.9081ZM654.95 119.175C654.95 126.908 653.084 128.508 644.017 128.508C637.084 128.508 632.284 125.575 632.284 121.308C632.284 115.975 638.417 113.041 650.684 112.641C654.95 112.508 654.95 112.508 654.95 119.175Z" fill="black"/>
<path d="M694.95 82.6414C692.417 83.7081 688.95 85.9747 687.35 87.4414C684.417 90.2414 684.284 91.1747 684.284 112.775C684.284 135.041 684.284 135.175 687.617 137.308C689.75 138.775 692.15 139.175 694.95 138.508L698.95 137.575V116.375V95.0414L703.617 93.0414C706.15 92.1081 711.217 91.1747 714.95 91.1747C721.35 91.1747 721.617 91.0414 721.617 87.4414C721.617 85.4414 720.95 83.0414 720.017 82.1081C717.75 79.8414 700.684 80.2414 694.95 82.6414Z" fill="black"/>
<path d="M744.417 81.9747C733.617 86.2414 728.284 95.4414 728.284 109.575C728.284 121.041 732.017 128.775 740.15 134.508C745.484 138.241 746.55 138.508 758.95 138.508C770.15 138.508 772.684 138.108 775.884 135.708C780.15 132.508 781.35 128.375 778.55 126.108C777.084 124.908 775.35 124.908 770.95 126.508C763.217 129.308 755.084 129.041 750.017 125.841C745.617 123.175 742.284 118.641 743.484 116.641C743.884 116.108 750.284 114.908 757.884 113.975C777.884 111.575 781.484 110.375 782.417 106.375C784.417 98.5081 778.284 87.5747 769.484 83.1747C764.017 80.2414 750.284 79.5747 744.417 81.9747ZM765.617 94.7747C770.417 100.908 768.95 102.375 755.217 104.375C748.417 105.308 742.55 105.841 742.017 105.441C740.55 103.975 742.95 98.2414 746.417 94.7747C749.35 91.8414 751.217 91.1747 756.417 91.1747C761.75 91.1747 763.217 91.7081 765.617 94.7747Z" fill="black"/>
<defs>
<clipPath id="clip0_253_2">
<rect width="144" height="143" fill="white" transform="translate(30 30)"/>
</clipPath>
</defs>
</svg>
