<?xml version="1.0" standalone="no"?>
<!DOCTYPE svg PUBLIC "-//W3C//DTD SVG 20010904//EN"
 "http://www.w3.org/TR/2001/REC-SVG-20010904/DTD/svg10.dtd">
<svg version="1.0" xmlns="http://www.w3.org/2000/svg"
 width="200.000000pt" height="200.000000pt" viewBox="0 0 200.000000 200.000000"
 preserveAspectRatio="xMidYMid meet">
<metadata>
Created by potrace 1.14, written by Peter Selinger 2001-2017
</metadata>
<g transform="translate(0.000000,200.000000) scale(0.100000,-0.100000)"
fill="#000000" stroke="none">
<path d="M817 1994 c-3 -4 -114 -7 -246 -8 -134 0 -237 -4 -234 -9 3 -5 -4 -4
-15 2 -27 14 -35 14 -26 -1 6 -10 5 -10 -8 -1 -8 7 -18 10 -22 6 -3 -4 -16 -8
-28 -10 -12 -2 -25 -7 -28 -11 -3 -4 -14 -8 -25 -10 -11 -2 -25 -10 -31 -18
-6 -8 -15 -14 -20 -14 -19 0 -100 -111 -106 -145 -2 -11 -8 -26 -15 -32 -16
-18 -16 -206 0 -196 9 5 9 3 0 -8 -16 -20 -16 -1142 0 -1132 9 5 8 2 0 -8 -10
-12 -12 -117 -3 -126 1 -2 3 -6 4 -10 7 -34 60 -117 102 -159 48 -47 89 -67
136 -67 11 0 14 -5 10 -16 -5 -14 -4 -14 11 -2 11 9 17 10 17 2 0 -6 5 -11 11
-11 5 0 7 5 4 10 -3 6 0 10 9 10 8 0 16 -5 18 -11 3 -9 10 -9 27 1 13 6 21 8
18 2 -9 -13 124 -9 148 6 13 7 15 12 6 12 -8 0 -12 3 -8 6 3 3 2 16 -3 29 -5
13 -12 43 -16 66 -3 24 -9 55 -11 69 -9 47 -12 345 -4 390 5 25 14 80 21 122
8 47 17 75 23 71 6 -3 7 -1 3 5 -8 13 -5 18 79 168 92 167 207 291 364 395 57
38 109 69 116 69 7 0 25 11 41 25 19 17 36 24 51 20 12 -3 28 1 35 7 16 15 18
16 138 40 165 33 344 27 509 -17 52 -14 96 -23 99 -20 3 2 7 58 10 124 l5 119
-59 8 c-33 4 -61 7 -64 6 -3 0 -11 4 -18 10 -7 6 -15 8 -19 5 -3 -4 -13 -1
-21 5 -10 9 -68 13 -186 14 -234 3 -391 -30 -585 -123 -42 -20 -82 -35 -88
-34 -8 1 -10 -5 -6 -16 3 -10 3 -15 -2 -11 -10 9 -92 -33 -132 -69 -49 -43
-69 -60 -85 -69 -9 -5 -48 -38 -88 -74 -40 -36 -79 -69 -88 -74 -42 -25 -102
-3 -122 43 -52 127 326 430 685 549 50 16 115 35 145 42 30 7 61 18 69 24 12
9 13 8 6 -3 -5 -10 -4 -12 4 -7 6 4 39 10 72 12 66 4 79 9 78 27 0 8 -2 8 -6
-1 -4 -10 -8 -10 -21 0 -12 10 -14 10 -8 1 8 -14 -6 -18 -18 -6 -10 10 -56 12
-88 2 -19 -5 -28 -4 -28 4 0 7 -7 3 -15 -7 -15 -20 -15 -20 -15 0 0 16 -2 17
-10 4 -8 -13 -11 -13 -19 -1 -7 11 -11 10 -20 -5 -6 -11 -11 -13 -11 -7 0 9
-18 12 -60 10 -35 -1 -60 2 -60 8 0 6 -5 3 -11 -5 -8 -12 -12 -12 -16 -2 -4
10 -8 10 -19 1 -11 -9 -14 -8 -14 2 0 11 -2 11 -10 -1 -8 -12 -11 -13 -19 -1
-5 7 -11 9 -14 4 -6 -10 -70 -9 -86 2 -6 3 -11 1 -11 -6 0 -8 -4 -8 -15 1 -12
10 -15 10 -15 -1 0 -12 -2 -12 -9 0 -7 11 -9 11 -14 0 -4 -11 -7 -11 -14 -1
-5 7 -12 9 -16 6z"/>
<path d="M1515 1989 c-4 -6 -5 -12 -2 -15 2 -3 7 2 10 11 7 17 1 20 -8 4z"/>
<path d="M1560 1991 c0 -6 4 -13 10 -16 6 -3 7 1 4 9 -7 18 -14 21 -14 7z"/>
<path d="M1680 1991 c0 -6 4 -13 10 -16 6 -3 7 1 4 9 -7 18 -14 21 -14 7z"/>
<path d="M1535 1980 c-3 -5 -1 -10 4 -10 6 0 11 5 11 10 0 6 -2 10 -4 10 -3 0
-8 -4 -11 -10z"/>
<path d="M1610 1980 c0 -5 5 -10 11 -10 5 0 7 5 4 10 -3 6 -8 10 -11 10 -2 0
-4 -4 -4 -10z"/>
<path d="M1655 1980 c-3 -5 -1 -10 4 -10 6 0 11 5 11 10 0 6 -2 10 -4 10 -3 0
-8 -4 -11 -10z"/>
<path d="M1540 1341 c0 -3 -28 -7 -63 -7 -131 -3 -335 -81 -442 -171 -278
-232 -405 -530 -361 -848 11 -76 24 -132 52 -222 l26 -83 77 -1 c130 -2 163
-1 167 4 2 2 -7 29 -21 60 -30 68 -96 257 -90 257 3 0 0 11 -5 25 -7 18 -6 25
3 25 7 0 8 3 2 8 -11 8 -16 82 -5 82 8 0 6 31 -3 47 -4 6 -1 16 7 22 7 6 16
25 20 42 3 16 19 63 36 104 106 266 309 415 615 451 54 6 113 -14 138 -48 18
-24 19 -32 9 -66 -15 -48 -56 -99 -67 -82 -6 9 -10 9 -16 -1 -7 -11 -9 -11 -9
-1 0 8 -5 10 -12 5 -7 -4 -24 -9 -38 -10 -242 -26 -391 -145 -459 -366 -56
-183 -10 -362 132 -521 l35 -38 231 0 230 0 50 28 c66 35 129 98 166 165 l30
54 1 489 c1 269 -1 498 -4 508 -6 24 -31 37 -75 40 -19 2 -33 6 -30 11 2 4 -4
7 -14 8 -10 0 -25 2 -33 4 -51 13 -70 15 -117 17 -29 1 -53 7 -53 13 0 5 -5 3
-10 -5 -8 -12 -10 -12 -10 -1 0 11 -3 11 -17 0 -14 -12 -15 -12 -9 -1 7 11 4
12 -13 3 -11 -7 -21 -8 -21 -3 0 5 -7 9 -15 9 -8 0 -15 -3 -15 -6z"/>
</g>
</svg>
